<?xml version="1.0" encoding="utf-8"?>
<!-- Generator: Adobe Illustrator 24.2.1, SVG Export Plug-In . SVG Version: 6.00 Build 0)  -->
<svg version="1.1" id="Layer_1" xmlns="http://www.w3.org/2000/svg" xmlns:xlink="http://www.w3.org/1999/xlink" x="0px" y="0px"
	 viewBox="0 0 2000 2000" style="enable-background:new 0 0 2000 2000;" xml:space="preserve">
<style type="text/css">
	.st0{fill:#FFFFFF;}
</style>
<g>
	<path class="st0" d="M989.53,246.91c-0.21,500.97-0.42,1001.94-0.63,1502.91c-38.53-22.28-77.06-44.56-115.6-66.84V480.13
		L527.46,632.15l-173.19-98.81C566.03,437.86,777.78,342.38,989.53,246.91z"/>
	<polygon class="st0" points="1010.12,1749.82 1124.13,1682.98 1124.13,476.33 1473.77,634.05 1645,533.34 1010.12,246.91 	"/>
	<path class="st0" d="M354.27,594.15c53.82,31.72,107.64,63.45,161.47,95.17c0.11,200.11,0.21,400.21,0.32,600.32
		c100.74,57.98,201.48,115.97,302.22,173.95c0.13,62.58,0.26,125.15,0.4,187.73c-154.8-89.21-309.6-178.41-464.4-267.62V594.15z"/>
	<path class="st0" d="M1645,594.15c-53.89,31.72-107.78,63.45-161.67,95.17c-0.11,200.11-0.21,400.21-0.32,600.32
		c-100.87,57.98-201.73,115.97-302.6,173.95c-0.13,62.58-0.26,125.15-0.4,187.73c154.99-89.21,309.99-178.41,464.98-267.62V594.15z"
		/>
</g>
</svg>
